<svg width="521" height="718" viewBox="0 0 521 718" fill="none" xmlns="http://www.w3.org/2000/svg">
<ellipse cx="220.152" cy="23.5691" rx="248.005" ry="200" transform="rotate(-160.774 220.152 23.5691)" fill="#F5CD28"/>
<ellipse cx="-55.2129" cy="425.299" rx="248.005" ry="178" transform="rotate(-160.774 -55.2129 425.299)" fill="#F5CD28"/>
<ellipse cx="22.4728" cy="162.852" rx="158.103" ry="201" transform="rotate(-160.774 22.4728 162.852)" fill="#F5CD28"/>
<path d="M98.9013 373.138C28.0929 348.444 -13.2395 282.347 6.58344 225.505C26.4064 168.664 99.878 142.603 170.686 167.296C206.264 179.704 234.398 202.565 251.075 229.451C201.835 227.243 157.99 250.774 143.832 291.373C133.21 321.829 141.644 355.151 163.379 382.097C142.728 383.528 120.689 380.736 98.9013 373.138Z" fill="#F5CD28"/>
</svg>
