<svg width="520" height="591" viewBox="0 0 520 591" fill="none" xmlns="http://www.w3.org/2000/svg">
<circle cx="612.558" cy="308.236" r="200" transform="rotate(-47.2769 612.558 308.236)" fill="#297AED"/>
<ellipse cx="337.158" cy="-86.3066" rx="200" ry="178" transform="rotate(-47.2769 337.158 -86.3066)" fill="#297AED"/>
<ellipse cx="575.166" cy="43.0364" rx="127.5" ry="201" transform="rotate(-47.2769 575.166 43.0364)" fill="#297AED"/>
<path d="M356.511 72.4513C397.541 28.0238 463.047 21.7872 502.823 58.5214C542.6 95.2557 541.584 161.05 500.554 205.478C479.052 228.76 450.829 241.553 423.109 243.17C439.977 205.122 431.787 158.985 399.508 129.175C381.417 112.467 358.813 103.71 335.996 102.732C341.072 92.0094 347.913 81.7612 356.511 72.4513Z" fill="#297AED"/>
</svg>
