<svg width="966" height="533" viewBox="0 0 966 533" fill="none" xmlns="http://www.w3.org/2000/svg">
<ellipse cx="166" cy="308.5" rx="166" ry="154.5" fill="#8B26EC"/>
<ellipse cx="404" cy="154.5" rx="166" ry="154.5" fill="#8B26EC"/>
<ellipse cx="618" cy="295.5" rx="166" ry="154.5" fill="#8B26EC"/>
<rect x="276" y="239" width="212" height="164" fill="#8B26EC"/>
<path d="M557.553 96C561.331 121.442 584.044 141 611.5 141C614.045 141 616.548 140.831 619 140.506V211H506V96H557.553Z" fill="#8B26EC"/>
<path d="M289 229H188V154.981C188.498 154.993 188.998 155 189.5 155C216.112 155 238.349 138.294 243.748 116H289V229Z" fill="#8B26EC"/>
<circle cx="866" cy="113" r="100" fill="#8B26EC"/>
<ellipse cx="928.5" cy="203" rx="37.5" ry="36" fill="#8B26EC"/>
<ellipse cx="643" cy="295.5" rx="176" ry="154.5" fill="#8B26EC"/>
<ellipse cx="166" cy="91.2576" rx="166" ry="91.2576" transform="matrix(1 0 0 -1 10 442.038)" fill="#8B26EC"/>
<ellipse cx="166" cy="91.2576" rx="166" ry="91.2576" transform="matrix(1 0 0 -1 248 533)" fill="#8B26EC"/>
<ellipse cx="166" cy="91.2576" rx="166" ry="91.2576" transform="matrix(1 0 0 -1 462 449.716)" fill="#8B26EC"/>
<rect width="212" height="96.8689" transform="matrix(1 0 0 -1 286 391.831)" fill="#8B26EC"/>
<path d="M567.553 476.296C571.331 461.268 594.044 449.716 621.5 449.716C624.045 449.716 626.548 449.818 629 450.01V408.369H516V476.296H567.553Z" fill="#8B26EC"/>
<path d="M299 397.738H198V441.458C198.498 441.452 198.998 441.447 199.5 441.447C226.112 441.447 248.349 451.314 253.748 464.483H299V397.738Z" fill="#8B26EC"/>
</svg>
