<svg width="511" height="642" viewBox="0 0 511 642" fill="none" xmlns="http://www.w3.org/2000/svg">
<ellipse cx="139.944" cy="115.049" rx="139.944" ry="115.049" transform="matrix(-0.744896 -0.66718 -0.66718 0.744896 434.589 666.716)" fill="#0EA34E"/>
<ellipse cx="139.944" cy="115.049" rx="139.944" ry="115.049" transform="matrix(-0.744896 -0.66718 -0.66718 0.744896 360.95 447.182)" fill="#0EA34E"/>
<ellipse cx="139.944" cy="115.049" rx="139.944" ry="115.049" transform="matrix(-0.744896 -0.66718 -0.66718 0.744896 235.004 592.735)" fill="#0EA34E"/>
<ellipse cx="139.944" cy="115.049" rx="139.944" ry="115.049" transform="matrix(-0.744896 -0.66718 -0.66718 0.744896 156.277 405.224)" fill="#0EA34E"/>
<rect width="179.226" height="122.199" transform="matrix(-0.744896 -0.66718 -0.66718 0.744896 218.351 558.553)" fill="#0EA34E"/>
<path d="M87.7499 413.655L16.4253 349.772L51.3982 310.725C52.8567 312.4 54.4396 314.012 56.1482 315.542C73.536 331.116 97.72 333.016 112.685 320.806L144.994 349.743L87.7499 413.655Z" fill="#0EA34E"/>
<path d="M279.334 602.703L215.324 545.372L271.701 482.428L299.792 507.588C291.589 523.117 297.272 545.47 314.39 560.802C314.85 561.214 315.315 561.615 315.782 562.009L279.334 602.703Z" fill="#0EA34E"/>
<ellipse cx="38.6686" cy="39.6498" rx="38.6686" ry="39.6498" transform="matrix(-0.744896 -0.66718 -0.66718 0.744896 403.04 519.785)" fill="#0EA34E"/>
</svg>
