<svg width="183" height="710" viewBox="0 0 183 710" fill="none" xmlns="http://www.w3.org/2000/svg">
<ellipse cx="114" cy="88.5" rx="114" ry="88.5" transform="matrix(0 1 1 0 88 0)" fill="#F57A25"/>
<ellipse cx="114" cy="88.5" rx="114" ry="88.5" transform="matrix(0 1 1 0 0 164)" fill="#F57A25"/>
<ellipse cx="114" cy="88.5" rx="114" ry="88.5" transform="matrix(0 1 1 0 81 311)" fill="#F57A25"/>
<ellipse cx="114" cy="88.5" rx="114" ry="88.5" transform="matrix(0 1 1 0 142 482)" fill="#F57A25"/>
<rect width="146" height="94" transform="matrix(0 1 1 0 137 190)" fill="#F57A25"/>
<path d="M184 495V575H143.896C144.612 571.376 145 567.512 145 563.5C145 547.376 138.758 533.631 130 528.332V495H184Z" fill="#F57A25"/>
<path d="M121 348V426H80.6777C80.8888 424.205 81 422.368 81 420.5C81 401.485 69.6773 385.777 55 383.332V348H121Z" fill="#F57A25"/>
<path d="M131 129V199H66V168.28C79.1079 164.818 89 149.221 89 130.5C89 129.998 88.9907 129.498 88.9766 129H131Z" fill="#F57A25"/>
<ellipse cx="31.5" cy="30.5" rx="31.5" ry="30.5" transform="matrix(0 1 1 0 20 99)" fill="#F57A25"/>
</svg>
