<svg width="543" height="589" viewBox="0 0 543 589" fill="none" xmlns="http://www.w3.org/2000/svg">
<circle cx="200" cy="200" r="200" transform="matrix(-0.871178 0.490967 0.490967 0.871178 346.156 390.671)" fill="#F5CD28"/>
<ellipse cx="200" cy="178" rx="200" ry="178" transform="matrix(-0.871178 0.490967 0.490967 0.871178 36.4714 50.9521)" fill="#F5CD28"/>
<ellipse cx="127.5" cy="201" rx="127.5" ry="201" transform="matrix(-0.871178 0.490967 0.490967 0.871178 72.1505 293)" fill="#F5CD28"/>
<path d="M88.8913 340.518C36.2067 370.209 17.4569 436.793 47.0126 489.237C76.5684 541.681 143.237 560.126 195.922 530.435C222.394 515.516 240.296 491.283 247.81 464.211C207.698 470.598 166.06 451.987 144.95 414.529C129.114 386.43 128.334 353.94 140.008 326.371C122.638 326.804 105.102 331.382 88.8913 340.518Z" fill="#F5CD28"/>
</svg>
