<svg width="500" height="500" viewBox="0 0 500 500" fill="none" xmlns="http://www.w3.org/2000/svg">
<mask id="mask0_307_52" style="mask-type:alpha" maskUnits="userSpaceOnUse" x="0" y="0" width="500" height="500">
<rect width="500" height="500" fill="#D9D9D9"/>
</mask>
<g mask="url(#mask0_307_52)">
<ellipse cx="212.15" cy="174.783" rx="212.15" ry="174.783" transform="matrix(-0.951584 -0.307389 0.278831 -0.96034 388.887 229.127)" fill="#F92626"/>
<ellipse cx="212.15" cy="155.557" rx="212.15" ry="155.557" transform="matrix(-0.951584 -0.307389 0.278831 -0.96034 175.753 571.529)" fill="#F92626"/>
<ellipse cx="135.245" cy="175.657" rx="135.245" ry="175.657" transform="matrix(-0.951584 -0.307389 0.278831 -0.96034 152.949 334.311)" fill="#F92626"/>
<path d="M146.089 306.751C85.0454 287.032 47.4514 230.091 62.1204 179.568C76.7896 129.046 138.166 104.076 199.209 123.794C229.88 133.702 254.63 153.007 269.806 176.174C227.925 175.615 191.601 197.53 181.124 233.615C173.264 260.685 181.688 289.74 201.161 312.816C183.685 314.654 164.871 312.818 146.089 306.751Z" fill="#F92626"/>
</g>
</svg>
