<svg width="1296" height="687" viewBox="0 0 1296 687" fill="none" xmlns="http://www.w3.org/2000/svg">
<path d="M462.072 26.86H453.072L451.704 31H444.288L453.54 5.62H461.676L470.892 31H463.44L462.072 26.86ZM460.308 21.46L457.572 13.252L454.872 21.46H460.308ZM480.248 25.6H488.132V31H473.192V5.62H480.248V25.6ZM497.931 11.272V15.412H506.031V20.776H497.931V25.348H507.111V31H490.875V5.62H507.111V11.272H497.931ZM526.798 13.972C526.39 13.3 525.826 12.784 525.106 12.424C524.41 12.064 523.582 11.884 522.622 11.884C520.846 11.884 519.442 12.46 518.41 13.612C517.402 14.764 516.898 16.312 516.898 18.256C516.898 20.44 517.438 22.108 518.518 23.26C519.622 24.388 521.218 24.952 523.306 24.952C525.778 24.952 527.542 23.836 528.598 21.604H521.506V16.528H534.682V23.368C534.13 24.712 533.314 25.972 532.234 27.148C531.178 28.324 529.834 29.296 528.202 30.064C526.57 30.808 524.71 31.18 522.622 31.18C520.078 31.18 517.822 30.64 515.854 29.56C513.91 28.456 512.398 26.932 511.318 24.988C510.262 23.02 509.734 20.776 509.734 18.256C509.734 15.76 510.262 13.54 511.318 11.596C512.398 9.628 513.91 8.104 515.854 7.024C517.798 5.92 520.042 5.368 522.586 5.368C525.778 5.368 528.418 6.136 530.506 7.672C532.594 9.208 533.89 11.308 534.394 13.972H526.798ZM550.696 31L545.656 21.64H544.9V31H537.844V5.62H548.968C551.008 5.62 552.736 5.98 554.152 6.7C555.568 7.396 556.636 8.368 557.356 9.616C558.076 10.84 558.436 12.22 558.436 13.756C558.436 15.484 557.956 17.008 556.996 18.328C556.06 19.624 554.68 20.548 552.856 21.1L558.58 31H550.696ZM544.9 16.816H548.392C549.352 16.816 550.072 16.588 550.552 16.132C551.032 15.676 551.272 15.016 551.272 14.152C551.272 13.336 551.02 12.7 550.516 12.244C550.036 11.764 549.328 11.524 548.392 11.524H544.9V16.816ZM568.701 5.62V31H561.645V5.62H568.701ZM588.775 26.86H579.775L578.407 31H570.991L580.243 5.62H588.379L597.595 31H590.143L588.775 26.86ZM587.011 21.46L584.275 13.252L581.575 21.46H587.011Z" fill="#3B3B3B"/>
<path d="M739.072 648.86H730.072L728.704 653H721.288L730.54 627.62H738.676L747.892 653H740.44L739.072 648.86ZM737.308 643.46L734.572 635.252L731.872 643.46H737.308ZM757.248 647.6H765.132V653H750.192V627.62H757.248V647.6ZM774.931 633.272V637.412H783.031V642.776H774.931V647.348H784.111V653H767.875V627.62H784.111V633.272H774.931ZM803.798 635.972C803.39 635.3 802.826 634.784 802.106 634.424C801.41 634.064 800.582 633.884 799.622 633.884C797.846 633.884 796.442 634.46 795.41 635.612C794.402 636.764 793.898 638.312 793.898 640.256C793.898 642.44 794.438 644.108 795.518 645.26C796.622 646.388 798.218 646.952 800.306 646.952C802.778 646.952 804.542 645.836 805.598 643.604H798.506V638.528H811.682V645.368C811.13 646.712 810.314 647.972 809.234 649.148C808.178 650.324 806.834 651.296 805.202 652.064C803.57 652.808 801.71 653.18 799.622 653.18C797.078 653.18 794.822 652.64 792.854 651.56C790.91 650.456 789.398 648.932 788.318 646.988C787.262 645.02 786.734 642.776 786.734 640.256C786.734 637.76 787.262 635.54 788.318 633.596C789.398 631.628 790.91 630.104 792.854 629.024C794.798 627.92 797.042 627.368 799.586 627.368C802.778 627.368 805.418 628.136 807.506 629.672C809.594 631.208 810.89 633.308 811.394 635.972H803.798ZM827.696 653L822.656 643.64H821.9V653H814.844V627.62H825.968C828.008 627.62 829.736 627.98 831.152 628.7C832.568 629.396 833.636 630.368 834.356 631.616C835.076 632.84 835.436 634.22 835.436 635.756C835.436 637.484 834.956 639.008 833.996 640.328C833.06 641.624 831.68 642.548 829.856 643.1L835.58 653H827.696ZM821.9 638.816H825.392C826.352 638.816 827.072 638.588 827.552 638.132C828.032 637.676 828.272 637.016 828.272 636.152C828.272 635.336 828.02 634.7 827.516 634.244C827.036 633.764 826.328 633.524 825.392 633.524H821.9V638.816ZM845.701 627.62V653H838.645V627.62H845.701ZM865.775 648.86H856.775L855.407 653H847.991L857.243 627.62H865.379L874.595 653H867.143L865.775 648.86ZM864.011 643.46L861.275 635.252L858.575 643.46H864.011Z" fill="#3B3B3B"/>
<path d="M421.592 402.252C418.64 402.252 416.216 401.556 414.32 400.164C412.424 398.748 411.404 396.732 411.26 394.116H418.784C418.856 395.004 419.12 395.652 419.576 396.06C420.032 396.468 420.62 396.672 421.34 396.672C421.988 396.672 422.516 396.516 422.924 396.204C423.356 395.868 423.572 395.412 423.572 394.836C423.572 394.092 423.224 393.516 422.528 393.108C421.832 392.7 420.704 392.244 419.144 391.74C417.488 391.188 416.144 390.66 415.112 390.156C414.104 389.628 413.216 388.872 412.448 387.888C411.704 386.88 411.332 385.572 411.332 383.964C411.332 382.332 411.74 380.94 412.556 379.788C413.372 378.612 414.5 377.724 415.94 377.124C417.38 376.524 419.012 376.224 420.836 376.224C423.788 376.224 426.14 376.92 427.892 378.312C429.668 379.68 430.616 381.612 430.736 384.108H423.068C423.044 383.34 422.804 382.764 422.348 382.38C421.916 381.996 421.352 381.804 420.656 381.804C420.128 381.804 419.696 381.96 419.36 382.272C419.024 382.584 418.856 383.028 418.856 383.604C418.856 384.084 419.036 384.504 419.396 384.864C419.78 385.2 420.248 385.5 420.8 385.764C421.352 386.004 422.168 386.316 423.248 386.7C424.856 387.252 426.176 387.804 427.208 388.356C428.264 388.884 429.164 389.64 429.908 390.624C430.676 391.584 431.06 392.808 431.06 394.296C431.06 395.808 430.676 397.164 429.908 398.364C429.164 399.564 428.072 400.512 426.632 401.208C425.216 401.904 423.536 402.252 421.592 402.252ZM441.252 376.62V391.344C441.252 392.712 441.564 393.768 442.188 394.512C442.836 395.256 443.808 395.628 445.104 395.628C446.4 395.628 447.372 395.256 448.02 394.512C448.692 393.744 449.028 392.688 449.028 391.344V376.62H456.084V391.344C456.084 393.672 455.592 395.664 454.608 397.32C453.624 398.952 452.28 400.188 450.576 401.028C448.896 401.844 447.024 402.252 444.96 402.252C442.896 402.252 441.048 401.844 439.416 401.028C437.808 400.188 436.536 398.952 435.6 397.32C434.688 395.688 434.232 393.696 434.232 391.344V376.62H441.252ZM480.021 385.08C480.021 386.616 479.661 388.02 478.941 389.292C478.245 390.54 477.177 391.548 475.737 392.316C474.321 393.06 472.581 393.432 470.517 393.432H467.025V402H459.969V376.62H470.517C472.557 376.62 474.285 376.98 475.701 377.7C477.141 378.42 478.221 379.416 478.941 380.688C479.661 381.96 480.021 383.424 480.021 385.08ZM469.833 387.816C471.825 387.816 472.821 386.904 472.821 385.08C472.821 383.232 471.825 382.308 469.833 382.308H467.025V387.816H469.833ZM489.912 382.272V386.412H498.012V391.776H489.912V396.348H499.092V402H482.856V376.62H499.092V382.272H489.912ZM515.431 402L510.391 392.64H509.635V402H502.579V376.62H513.703C515.743 376.62 517.471 376.98 518.887 377.7C520.303 378.396 521.371 379.368 522.091 380.616C522.811 381.84 523.171 383.22 523.171 384.756C523.171 386.484 522.691 388.008 521.73 389.328C520.795 390.624 519.415 391.548 517.591 392.1L523.315 402H515.431ZM509.635 387.816H513.127C514.087 387.816 514.807 387.588 515.287 387.132C515.767 386.676 516.007 386.016 516.007 385.152C516.007 384.336 515.755 383.7 515.251 383.244C514.771 382.764 514.063 382.524 513.127 382.524H509.635V387.816ZM542.435 397.86H533.435L532.067 402H524.651L533.903 376.62H542.039L551.255 402H543.803L542.435 397.86ZM540.671 392.46L537.935 384.252L535.235 392.46H540.671ZM565.219 395.7C566.275 395.7 567.199 395.448 567.991 394.944C568.807 394.44 569.443 393.708 569.899 392.748H577.495C576.943 395.292 575.791 397.38 574.039 399.012C572.311 400.644 570.151 401.652 567.559 402.036V403.332C568.735 403.332 569.803 403.68 570.763 404.376C571.747 405.072 572.239 406.14 572.239 407.58C572.239 409.044 571.723 410.124 570.691 410.82C569.659 411.516 568.435 411.864 567.019 411.864H561.151V408.156H566.191C566.983 408.156 567.379 407.904 567.379 407.4C567.379 406.896 566.983 406.644 566.191 406.644H563.383V402.072C561.223 401.808 559.339 401.1 557.731 399.948C556.123 398.796 554.875 397.308 553.987 395.484C553.123 393.636 552.691 391.56 552.691 389.256C552.691 386.76 553.207 384.54 554.239 382.596C555.295 380.628 556.783 379.104 558.703 378.024C560.623 376.92 562.831 376.368 565.327 376.368C568.495 376.368 571.159 377.22 573.319 378.924C575.479 380.604 576.871 382.896 577.495 385.8H569.899C569.443 384.84 568.807 384.108 567.991 383.604C567.199 383.1 566.275 382.848 565.219 382.848C563.587 382.848 562.279 383.436 561.295 384.612C560.335 385.764 559.855 387.312 559.855 389.256C559.855 391.224 560.335 392.796 561.295 393.972C562.279 395.124 563.587 395.7 565.219 395.7ZM596.892 397.86H587.892L586.524 402H579.108L588.36 376.62H596.496L605.712 402H598.26L596.892 397.86ZM595.128 392.46L592.392 384.252L589.692 392.46H595.128ZM584.58 375C585.252 371.088 587.052 369.132 589.98 369.132C590.532 369.132 591.024 369.216 591.456 369.384C591.912 369.552 592.428 369.792 593.004 370.104C593.412 370.32 593.76 370.488 594.048 370.608C594.336 370.728 594.624 370.788 594.912 370.788C595.8 370.788 596.328 370.236 596.496 369.132H600.06C599.724 371.172 599.088 372.66 598.152 373.596C597.24 374.508 596.076 374.964 594.66 374.964C594.132 374.964 593.652 374.892 593.22 374.748C592.788 374.58 592.26 374.34 591.636 374.028C591.228 373.812 590.88 373.644 590.592 373.524C590.304 373.404 590.016 373.344 589.728 373.344C588.864 373.344 588.324 373.896 588.108 375H584.58ZM620.18 402.252C617.804 402.252 615.62 401.7 613.628 400.596C611.636 399.468 610.052 397.92 608.876 395.952C607.724 393.96 607.148 391.716 607.148 389.22C607.148 386.724 607.724 384.492 608.876 382.524C610.052 380.532 611.636 378.984 613.628 377.88C615.62 376.776 617.804 376.224 620.18 376.224C622.58 376.224 624.764 376.776 626.732 377.88C628.724 378.984 630.296 380.532 631.448 382.524C632.6 384.492 633.176 386.724 633.176 389.22C633.176 391.716 632.6 393.96 631.448 395.952C630.296 397.92 628.724 399.468 626.732 400.596C624.74 401.7 622.556 402.252 620.18 402.252ZM620.18 395.7C621.98 395.7 623.396 395.112 624.428 393.936C625.484 392.76 626.012 391.188 626.012 389.22C626.012 387.204 625.484 385.62 624.428 384.468C623.396 383.292 621.98 382.704 620.18 382.704C618.356 382.704 616.928 383.292 615.896 384.468C614.864 385.62 614.348 387.204 614.348 389.22C614.348 391.212 614.864 392.796 615.896 393.972C616.928 395.124 618.356 395.7 620.18 395.7Z" fill="#3B3B3B"/>
<path d="M863.224 9.62V15.236H853.072V19.7H860.56V25.064H853.072V35H846.016V9.62H863.224ZM878.364 35.252C875.988 35.252 873.804 34.7 871.812 33.596C869.82 32.468 868.236 30.92 867.06 28.952C865.908 26.96 865.332 24.716 865.332 22.22C865.332 19.724 865.908 17.492 867.06 15.524C868.236 13.532 869.82 11.984 871.812 10.88C873.804 9.776 875.988 9.224 878.364 9.224C880.764 9.224 882.948 9.776 884.916 10.88C886.908 11.984 888.48 13.532 889.632 15.524C890.784 17.492 891.36 19.724 891.36 22.22C891.36 24.716 890.784 26.96 889.632 28.952C888.48 30.92 886.908 32.468 884.916 33.596C882.924 34.7 880.74 35.252 878.364 35.252ZM878.364 28.7C880.164 28.7 881.58 28.112 882.612 26.936C883.668 25.76 884.196 24.188 884.196 22.22C884.196 20.204 883.668 18.62 882.612 17.468C881.58 16.292 880.164 15.704 878.364 15.704C876.54 15.704 875.112 16.292 874.08 17.468C873.048 18.62 872.532 20.204 872.532 22.22C872.532 24.212 873.048 25.796 874.08 26.972C875.112 28.124 876.54 28.7 878.364 28.7ZM907.384 35L902.344 25.64H901.588V35H894.532V9.62H905.656C907.696 9.62 909.424 9.98 910.84 10.7C912.256 11.396 913.324 12.368 914.044 13.616C914.764 14.84 915.124 16.22 915.124 17.756C915.124 19.484 914.644 21.008 913.684 22.328C912.748 23.624 911.368 24.548 909.544 25.1L915.268 35H907.384ZM901.588 20.816H905.08C906.04 20.816 906.76 20.588 907.24 20.132C907.72 19.676 907.96 19.016 907.96 18.152C907.96 17.336 907.708 16.7 907.204 16.244C906.724 15.764 906.016 15.524 905.08 15.524H901.588V20.816ZM929.996 28.7C931.052 28.7 931.976 28.448 932.768 27.944C933.584 27.44 934.22 26.708 934.676 25.748H942.272C941.72 28.292 940.568 30.38 938.816 32.012C937.088 33.644 934.928 34.652 932.336 35.036V36.332C933.512 36.332 934.58 36.68 935.54 37.376C936.524 38.072 937.016 39.14 937.016 40.58C937.016 42.044 936.5 43.124 935.468 43.82C934.436 44.516 933.212 44.864 931.796 44.864H925.928V41.156H930.968C931.76 41.156 932.156 40.904 932.156 40.4C932.156 39.896 931.76 39.644 930.968 39.644H928.16V35.072C926 34.808 924.116 34.1 922.508 32.948C920.9 31.796 919.652 30.308 918.764 28.484C917.9 26.636 917.468 24.56 917.468 22.256C917.468 19.76 917.984 17.54 919.016 15.596C920.072 13.628 921.56 12.104 923.48 11.024C925.4 9.92 927.608 9.368 930.104 9.368C933.272 9.368 935.936 10.22 938.096 11.924C940.256 13.604 941.648 15.896 942.272 18.8H934.676C934.22 17.84 933.584 17.108 932.768 16.604C931.976 16.1 931.052 15.848 929.996 15.848C928.364 15.848 927.056 16.436 926.072 17.612C925.112 18.764 924.632 20.312 924.632 22.256C924.632 24.224 925.112 25.796 926.072 26.972C927.056 28.124 928.364 28.7 929.996 28.7ZM961.67 30.86H952.67L951.302 35H943.886L953.138 9.62H961.274L970.49 35H963.038L961.67 30.86ZM959.906 25.46L957.17 17.252L954.47 25.46H959.906Z" fill="#3B3B3B"/>
<path d="M19.224 651.62V657.236H9.072V661.7H16.56V667.064H9.072V677H2.016V651.62H19.224ZM34.3637 677.252C31.9877 677.252 29.8037 676.7 27.8117 675.596C25.8197 674.468 24.2357 672.92 23.0597 670.952C21.9077 668.96 21.3317 666.716 21.3317 664.22C21.3317 661.724 21.9077 659.492 23.0597 657.524C24.2357 655.532 25.8197 653.984 27.8117 652.88C29.8037 651.776 31.9877 651.224 34.3637 651.224C36.7637 651.224 38.9477 651.776 40.9157 652.88C42.9077 653.984 44.4797 655.532 45.6317 657.524C46.7837 659.492 47.3597 661.724 47.3597 664.22C47.3597 666.716 46.7837 668.96 45.6317 670.952C44.4797 672.92 42.9077 674.468 40.9157 675.596C38.9237 676.7 36.7397 677.252 34.3637 677.252ZM34.3637 670.7C36.1637 670.7 37.5797 670.112 38.6117 668.936C39.6677 667.76 40.1957 666.188 40.1957 664.22C40.1957 662.204 39.6677 660.62 38.6117 659.468C37.5797 658.292 36.1637 657.704 34.3637 657.704C32.5397 657.704 31.1117 658.292 30.0797 659.468C29.0477 660.62 28.5317 662.204 28.5317 664.22C28.5317 666.212 29.0477 667.796 30.0797 668.972C31.1117 670.124 32.5397 670.7 34.3637 670.7ZM63.3836 677L58.3436 667.64H57.5876V677H50.5316V651.62H61.6556C63.6956 651.62 65.4236 651.98 66.8396 652.7C68.2556 653.396 69.3236 654.368 70.0436 655.616C70.7636 656.84 71.1236 658.22 71.1236 659.756C71.1236 661.484 70.6436 663.008 69.6836 664.328C68.7476 665.624 67.3676 666.548 65.5436 667.1L71.2676 677H63.3836ZM57.5876 662.816H61.0796C62.0396 662.816 62.7596 662.588 63.2396 662.132C63.7196 661.676 63.9596 661.016 63.9596 660.152C63.9596 659.336 63.7076 658.7 63.2036 658.244C62.7236 657.764 62.0156 657.524 61.0796 657.524H57.5876V662.816ZM85.9964 670.7C87.0524 670.7 87.9764 670.448 88.7684 669.944C89.5844 669.44 90.2204 668.708 90.6764 667.748H98.2724C97.7204 670.292 96.5684 672.38 94.8164 674.012C93.0884 675.644 90.9284 676.652 88.3364 677.036V678.332C89.5124 678.332 90.5804 678.68 91.5404 679.376C92.5244 680.072 93.0164 681.14 93.0164 682.58C93.0164 684.044 92.5004 685.124 91.4684 685.82C90.4364 686.516 89.2124 686.864 87.7964 686.864H81.9284V683.156H86.9684C87.7604 683.156 88.1564 682.904 88.1564 682.4C88.1564 681.896 87.7604 681.644 86.9684 681.644H84.1604V677.072C82.0004 676.808 80.1164 676.1 78.5084 674.948C76.9004 673.796 75.6524 672.308 74.7644 670.484C73.9004 668.636 73.4684 666.56 73.4684 664.256C73.4684 661.76 73.9844 659.54 75.0164 657.596C76.0724 655.628 77.5604 654.104 79.4804 653.024C81.4004 651.92 83.6084 651.368 86.1044 651.368C89.2724 651.368 91.9364 652.22 94.0964 653.924C96.2564 655.604 97.6484 657.896 98.2724 660.8H90.6764C90.2204 659.84 89.5844 659.108 88.7684 658.604C87.9764 658.1 87.0524 657.848 85.9964 657.848C84.3644 657.848 83.0564 658.436 82.0724 659.612C81.1124 660.764 80.6324 662.312 80.6324 664.256C80.6324 666.224 81.1124 667.796 82.0724 668.972C83.0564 670.124 84.3644 670.7 85.9964 670.7ZM117.67 672.86H108.67L107.302 677H99.8857L109.138 651.62H117.274L126.49 677H119.038L117.67 672.86ZM115.906 667.46L113.17 659.252L110.47 667.46H115.906Z" fill="#3B3B3B"/>
<path d="M796.644 429.62V455H789.588V440.996L784.8 455H778.896L774.072 440.888V455H767.016V429.62H775.548L781.92 446.108L788.148 429.62H796.644ZM807.717 435.272V439.412H815.817V444.776H807.717V449.348H816.897V455H800.661V429.62H816.897V435.272H807.717ZM830.427 429.62C833.091 429.62 835.419 430.16 837.411 431.24C839.427 432.296 840.975 433.784 842.055 435.704C843.135 437.624 843.675 439.82 843.675 442.292C843.675 444.74 843.123 446.924 842.019 448.844C840.939 450.764 839.391 452.276 837.375 453.38C835.383 454.46 833.067 455 830.427 455H820.383V429.62H830.427ZM829.887 448.772C831.951 448.772 833.571 448.208 834.747 447.08C835.923 445.952 836.511 444.356 836.511 442.292C836.511 440.204 835.923 438.596 834.747 437.468C833.571 436.316 831.951 435.74 829.887 435.74H827.439V448.772H829.887ZM859.024 455.252C856.648 455.252 854.464 454.7 852.472 453.596C850.48 452.468 848.896 450.92 847.72 448.952C846.568 446.96 845.992 444.716 845.992 442.22C845.992 439.724 846.568 437.492 847.72 435.524C848.896 433.532 850.48 431.984 852.472 430.88C854.464 429.776 856.648 429.224 859.024 429.224C861.424 429.224 863.608 429.776 865.576 430.88C867.568 431.984 869.14 433.532 870.292 435.524C871.444 437.492 872.02 439.724 872.02 442.22C872.02 444.716 871.444 446.96 870.292 448.952C869.14 450.92 867.568 452.468 865.576 453.596C863.584 454.7 861.4 455.252 859.024 455.252ZM859.024 448.7C860.824 448.7 862.24 448.112 863.272 446.936C864.328 445.76 864.856 444.188 864.856 442.22C864.856 440.204 864.328 438.62 863.272 437.468C862.24 436.292 860.824 435.704 859.024 435.704C857.2 435.704 855.772 436.292 854.74 437.468C853.708 438.62 853.192 440.204 853.192 442.22C853.192 444.212 853.708 445.796 854.74 446.972C855.772 448.124 857.2 448.7 859.024 448.7Z" fill="#3B3B3B"/>
<path d="M594.072 251.272V255.412H602.172V260.776H594.072V265.348H603.252V271H587.016V245.62H603.252V251.272H594.072ZM616.315 271.252C613.363 271.252 610.939 270.556 609.043 269.164C607.147 267.748 606.127 265.732 605.983 263.116H613.507C613.579 264.004 613.843 264.652 614.299 265.06C614.755 265.468 615.343 265.672 616.063 265.672C616.711 265.672 617.239 265.516 617.647 265.204C618.079 264.868 618.295 264.412 618.295 263.836C618.295 263.092 617.947 262.516 617.251 262.108C616.555 261.7 615.427 261.244 613.867 260.74C612.211 260.188 610.867 259.66 609.835 259.156C608.827 258.628 607.939 257.872 607.171 256.888C606.427 255.88 606.055 254.572 606.055 252.964C606.055 251.332 606.463 249.94 607.279 248.788C608.095 247.612 609.223 246.724 610.663 246.124C612.103 245.524 613.735 245.224 615.559 245.224C618.511 245.224 620.863 245.92 622.615 247.312C624.391 248.68 625.339 250.612 625.459 253.108H617.791C617.767 252.34 617.527 251.764 617.071 251.38C616.639 250.996 616.075 250.804 615.379 250.804C614.851 250.804 614.419 250.96 614.083 251.272C613.747 251.584 613.579 252.028 613.579 252.604C613.579 253.084 613.759 253.504 614.119 253.864C614.503 254.2 614.971 254.5 615.523 254.764C616.075 255.004 616.891 255.316 617.971 255.7C619.579 256.252 620.899 256.804 621.931 257.356C622.987 257.884 623.887 258.64 624.631 259.624C625.399 260.584 625.783 261.808 625.783 263.296C625.783 264.808 625.399 266.164 624.631 267.364C623.887 268.564 622.795 269.512 621.355 270.208C619.939 270.904 618.259 271.252 616.315 271.252ZM649.115 254.08C649.115 255.616 648.755 257.02 648.035 258.292C647.339 259.54 646.271 260.548 644.831 261.316C643.415 262.06 641.675 262.432 639.611 262.432H636.119V271H629.063V245.62H639.611C641.651 245.62 643.379 245.98 644.795 246.7C646.235 247.42 647.315 248.416 648.035 249.688C648.755 250.96 649.115 252.424 649.115 254.08ZM638.927 256.816C640.919 256.816 641.915 255.904 641.915 254.08C641.915 252.232 640.919 251.308 638.927 251.308H636.119V256.816H638.927ZM659.006 251.272V255.412H667.106V260.776H659.006V265.348H668.186V271H651.95V245.62H668.186V251.272H659.006ZM684.524 271L679.484 261.64H678.728V271H671.672V245.62H682.796C684.836 245.62 686.564 245.98 687.98 246.7C689.396 247.396 690.464 248.368 691.184 249.616C691.904 250.84 692.264 252.22 692.264 253.756C692.264 255.484 691.784 257.008 690.824 258.328C689.888 259.624 688.508 260.548 686.684 261.1L692.408 271H684.524ZM678.728 256.816H682.22C683.18 256.816 683.9 256.588 684.38 256.132C684.86 255.676 685.1 255.016 685.1 254.152C685.1 253.336 684.848 252.7 684.344 252.244C683.864 251.764 683.156 251.524 682.22 251.524H678.728V256.816ZM711.529 266.86H702.529L701.161 271H693.745L702.997 245.62H711.133L720.349 271H712.897L711.529 266.86ZM709.765 261.46L707.029 253.252L704.329 261.46H709.765ZM746.157 271H739.101L729.705 256.816V271H722.649V245.62H729.705L739.101 259.984V245.62H746.157V271ZM761.84 264.7C762.896 264.7 763.82 264.448 764.612 263.944C765.428 263.44 766.064 262.708 766.52 261.748H774.116C773.564 264.292 772.412 266.38 770.66 268.012C768.932 269.644 766.772 270.652 764.18 271.036V272.332C765.356 272.332 766.424 272.68 767.384 273.376C768.368 274.072 768.86 275.14 768.86 276.58C768.86 278.044 768.344 279.124 767.312 279.82C766.28 280.516 765.056 280.864 763.64 280.864H757.772V277.156H762.812C763.604 277.156 764 276.904 764 276.4C764 275.896 763.604 275.644 762.812 275.644H760.004V271.072C757.844 270.808 755.96 270.1 754.352 268.948C752.744 267.796 751.496 266.308 750.608 264.484C749.744 262.636 749.312 260.56 749.312 258.256C749.312 255.76 749.828 253.54 750.86 251.596C751.916 249.628 753.404 248.104 755.324 247.024C757.244 245.92 759.452 245.368 761.948 245.368C765.116 245.368 767.78 246.22 769.94 247.924C772.1 249.604 773.492 251.896 774.116 254.8H766.52C766.064 253.84 765.428 253.108 764.612 252.604C763.82 252.1 762.896 251.848 761.84 251.848C760.208 251.848 758.9 252.436 757.916 253.612C756.956 254.764 756.476 256.312 756.476 258.256C756.476 260.224 756.956 261.796 757.916 262.972C758.9 264.124 760.208 264.7 761.84 264.7ZM793.513 266.86H784.513L783.145 271H775.729L784.981 245.62H793.117L802.333 271H794.881L793.513 266.86ZM791.749 261.46L789.013 253.252L786.313 261.46H791.749Z" fill="#3B3B3B"/>
<path d="M746.868 568L741.828 558.64H741.072V568H734.016V542.62H745.14C747.18 542.62 748.908 542.98 750.324 543.7C751.74 544.396 752.808 545.368 753.528 546.616C754.248 547.84 754.608 549.22 754.608 550.756C754.608 552.484 754.128 554.008 753.168 555.328C752.232 556.624 750.852 557.548 749.028 558.1L754.752 568H746.868ZM741.072 553.816H744.564C745.524 553.816 746.244 553.588 746.724 553.132C747.204 552.676 747.444 552.016 747.444 551.152C747.444 550.336 747.192 549.7 746.688 549.244C746.208 548.764 745.5 548.524 744.564 548.524H741.072V553.816ZM764.873 548.272V552.412H772.973V557.776H764.873V562.348H774.053V568H757.817V542.62H774.053V548.272H764.873ZM776.675 555.256C776.675 552.76 777.191 550.54 778.223 548.596C779.279 546.628 780.767 545.104 782.687 544.024C784.607 542.92 786.815 542.368 789.311 542.368C792.479 542.368 795.143 543.22 797.303 544.924C799.463 546.604 800.855 548.896 801.479 551.8H793.883C793.427 550.84 792.791 550.108 791.975 549.604C791.183 549.1 790.259 548.848 789.203 548.848C787.571 548.848 786.263 549.436 785.279 550.612C784.319 551.764 783.839 553.312 783.839 555.256C783.839 557.224 784.319 558.796 785.279 559.972C786.263 561.124 787.571 561.7 789.203 561.7C790.259 561.7 791.183 561.448 791.975 560.944C792.791 560.44 793.427 559.708 793.883 558.748H801.479C800.855 561.652 799.463 563.956 797.303 565.66C795.143 567.34 792.479 568.18 789.311 568.18C786.815 568.18 784.607 567.64 782.687 566.56C780.767 565.456 779.279 563.932 778.223 561.988C777.191 560.02 776.675 557.776 776.675 555.256ZM816.989 568.252C814.613 568.252 812.429 567.7 810.437 566.596C808.445 565.468 806.861 563.92 805.685 561.952C804.533 559.96 803.957 557.716 803.957 555.22C803.957 552.724 804.533 550.492 805.685 548.524C806.861 546.532 808.445 544.984 810.437 543.88C812.429 542.776 814.613 542.224 816.989 542.224C819.389 542.224 821.573 542.776 823.541 543.88C825.533 544.984 827.105 546.532 828.257 548.524C829.409 550.492 829.985 552.724 829.985 555.22C829.985 557.716 829.409 559.96 828.257 561.952C827.105 563.92 825.533 565.468 823.541 566.596C821.549 567.7 819.365 568.252 816.989 568.252ZM816.989 561.7C818.789 561.7 820.205 561.112 821.237 559.936C822.293 558.76 822.821 557.188 822.821 555.22C822.821 553.204 822.293 551.62 821.237 550.468C820.205 549.292 818.789 548.704 816.989 548.704C815.165 548.704 813.737 549.292 812.705 550.468C811.673 551.62 811.157 553.204 811.157 555.22C811.157 557.212 811.673 558.796 812.705 559.972C813.737 561.124 815.165 561.7 816.989 561.7ZM862.785 542.62V568H855.729V553.996L850.941 568H845.037L840.213 553.888V568H833.157V542.62H841.689L848.061 559.108L854.289 542.62H862.785ZM873.857 548.272V552.412H881.957V557.776H873.857V562.348H883.037V568H866.801V542.62H883.037V548.272H873.857ZM898.188 561.7C899.244 561.7 900.168 561.448 900.96 560.944C901.776 560.44 902.412 559.708 902.868 558.748H910.464C909.912 561.292 908.76 563.38 907.008 565.012C905.28 566.644 903.12 567.652 900.528 568.036V569.332C901.704 569.332 902.772 569.68 903.732 570.376C904.716 571.072 905.208 572.14 905.208 573.58C905.208 575.044 904.692 576.124 903.66 576.82C902.628 577.516 901.404 577.864 899.988 577.864H894.12V574.156H899.16C899.952 574.156 900.348 573.904 900.348 573.4C900.348 572.896 899.952 572.644 899.16 572.644H896.352V568.072C894.192 567.808 892.308 567.1 890.7 565.948C889.092 564.796 887.844 563.308 886.956 561.484C886.092 559.636 885.66 557.56 885.66 555.256C885.66 552.76 886.176 550.54 887.208 548.596C888.264 546.628 889.752 545.104 891.672 544.024C893.592 542.92 895.8 542.368 898.296 542.368C901.464 542.368 904.128 543.22 906.288 544.924C908.448 546.604 909.84 548.896 910.464 551.8H902.868C902.412 550.84 901.776 550.108 900.96 549.604C900.168 549.1 899.244 548.848 898.188 548.848C896.556 548.848 895.248 549.436 894.264 550.612C893.304 551.764 892.824 553.312 892.824 555.256C892.824 557.224 893.304 558.796 894.264 559.972C895.248 561.124 896.556 561.7 898.188 561.7ZM925.973 568.252C923.597 568.252 921.413 567.7 919.421 566.596C917.429 565.468 915.845 563.92 914.669 561.952C913.517 559.96 912.941 557.716 912.941 555.22C912.941 552.724 913.517 550.492 914.669 548.524C915.845 546.532 917.429 544.984 919.421 543.88C921.413 542.776 923.597 542.224 925.973 542.224C928.373 542.224 930.557 542.776 932.525 543.88C934.517 544.984 936.089 546.532 937.241 548.524C938.393 550.492 938.969 552.724 938.969 555.22C938.969 557.716 938.393 559.96 937.241 561.952C936.089 563.92 934.517 565.468 932.525 566.596C930.533 567.7 928.349 568.252 925.973 568.252ZM925.973 561.7C927.773 561.7 929.189 561.112 930.221 559.936C931.277 558.76 931.805 557.188 931.805 555.22C931.805 553.204 931.277 551.62 930.221 550.468C929.189 549.292 927.773 548.704 925.973 548.704C924.149 548.704 922.721 549.292 921.689 550.468C920.657 551.62 920.141 553.204 920.141 555.22C920.141 557.212 920.657 558.796 921.689 559.972C922.721 561.124 924.149 561.7 925.973 561.7Z" fill="#3B3B3B"/>
<path d="M150.868 610L145.828 600.64H145.072V610H138.016V584.62H149.14C151.18 584.62 152.908 584.98 154.324 585.7C155.74 586.396 156.808 587.368 157.528 588.616C158.248 589.84 158.608 591.22 158.608 592.756C158.608 594.484 158.128 596.008 157.168 597.328C156.232 598.624 154.852 599.548 153.028 600.1L158.752 610H150.868ZM145.072 595.816H148.564C149.524 595.816 150.244 595.588 150.724 595.132C151.204 594.676 151.444 594.016 151.444 593.152C151.444 592.336 151.192 591.7 150.688 591.244C150.208 590.764 149.5 590.524 148.564 590.524H145.072V595.816ZM168.873 590.272V594.412H176.973V599.776H168.873V604.348H178.053V610H161.817V584.62H178.053V590.272H168.873ZM180.675 597.256C180.675 594.76 181.191 592.54 182.223 590.596C183.279 588.628 184.767 587.104 186.687 586.024C188.607 584.92 190.815 584.368 193.311 584.368C196.479 584.368 199.143 585.22 201.303 586.924C203.463 588.604 204.855 590.896 205.479 593.8H197.883C197.427 592.84 196.791 592.108 195.975 591.604C195.183 591.1 194.259 590.848 193.203 590.848C191.571 590.848 190.263 591.436 189.279 592.612C188.319 593.764 187.839 595.312 187.839 597.256C187.839 599.224 188.319 600.796 189.279 601.972C190.263 603.124 191.571 603.7 193.203 603.7C194.259 603.7 195.183 603.448 195.975 602.944C196.791 602.44 197.427 601.708 197.883 600.748H205.479C204.855 603.652 203.463 605.956 201.303 607.66C199.143 609.34 196.479 610.18 193.311 610.18C190.815 610.18 188.607 609.64 186.687 608.56C184.767 607.456 183.279 605.932 182.223 603.988C181.191 602.02 180.675 599.776 180.675 597.256ZM220.989 610.252C218.613 610.252 216.429 609.7 214.437 608.596C212.445 607.468 210.861 605.92 209.685 603.952C208.533 601.96 207.957 599.716 207.957 597.22C207.957 594.724 208.533 592.492 209.685 590.524C210.861 588.532 212.445 586.984 214.437 585.88C216.429 584.776 218.613 584.224 220.989 584.224C223.389 584.224 225.573 584.776 227.541 585.88C229.533 586.984 231.105 588.532 232.257 590.524C233.409 592.492 233.985 594.724 233.985 597.22C233.985 599.716 233.409 601.96 232.257 603.952C231.105 605.92 229.533 607.468 227.541 608.596C225.549 609.7 223.365 610.252 220.989 610.252ZM220.989 603.7C222.789 603.7 224.205 603.112 225.237 601.936C226.293 600.76 226.821 599.188 226.821 597.22C226.821 595.204 226.293 593.62 225.237 592.468C224.205 591.292 222.789 590.704 220.989 590.704C219.165 590.704 217.737 591.292 216.705 592.468C215.673 593.62 215.157 595.204 215.157 597.22C215.157 599.212 215.673 600.796 216.705 601.972C217.737 603.124 219.165 603.7 220.989 603.7ZM266.785 584.62V610H259.729V595.996L254.941 610H249.037L244.213 595.888V610H237.157V584.62H245.689L252.061 601.108L258.289 584.62H266.785ZM277.857 590.272V594.412H285.957V599.776H277.857V604.348H287.037V610H270.801V584.62H287.037V590.272H277.857ZM302.188 603.7C303.244 603.7 304.168 603.448 304.96 602.944C305.776 602.44 306.412 601.708 306.868 600.748H314.464C313.912 603.292 312.76 605.38 311.008 607.012C309.28 608.644 307.12 609.652 304.528 610.036V611.332C305.704 611.332 306.772 611.68 307.732 612.376C308.716 613.072 309.208 614.14 309.208 615.58C309.208 617.044 308.692 618.124 307.66 618.82C306.628 619.516 305.404 619.864 303.988 619.864H298.12V616.156H303.16C303.952 616.156 304.348 615.904 304.348 615.4C304.348 614.896 303.952 614.644 303.16 614.644H300.352V610.072C298.192 609.808 296.308 609.1 294.7 607.948C293.092 606.796 291.844 605.308 290.956 603.484C290.092 601.636 289.66 599.56 289.66 597.256C289.66 594.76 290.176 592.54 291.208 590.596C292.264 588.628 293.752 587.104 295.672 586.024C297.592 584.92 299.8 584.368 302.296 584.368C305.464 584.368 308.128 585.22 310.288 586.924C312.448 588.604 313.84 590.896 314.464 593.8H306.868C306.412 592.84 305.776 592.108 304.96 591.604C304.168 591.1 303.244 590.848 302.188 590.848C300.556 590.848 299.248 591.436 298.264 592.612C297.304 593.764 296.824 595.312 296.824 597.256C296.824 599.224 297.304 600.796 298.264 601.972C299.248 603.124 300.556 603.7 302.188 603.7ZM329.973 610.252C327.597 610.252 325.413 609.7 323.421 608.596C321.429 607.468 319.845 605.92 318.669 603.952C317.517 601.96 316.941 599.716 316.941 597.22C316.941 594.724 317.517 592.492 318.669 590.524C319.845 588.532 321.429 586.984 323.421 585.88C325.413 584.776 327.597 584.224 329.973 584.224C332.373 584.224 334.557 584.776 336.525 585.88C338.517 586.984 340.089 588.532 341.241 590.524C342.393 592.492 342.969 594.724 342.969 597.22C342.969 599.716 342.393 601.96 341.241 603.952C340.089 605.92 338.517 607.468 336.525 608.596C334.533 609.7 332.349 610.252 329.973 610.252ZM329.973 603.7C331.773 603.7 333.189 603.112 334.221 601.936C335.277 600.76 335.805 599.188 335.805 597.22C335.805 595.204 335.277 593.62 334.221 592.468C333.189 591.292 331.773 590.704 329.973 590.704C328.149 590.704 326.721 591.292 325.689 592.468C324.657 593.62 324.141 595.204 324.141 597.22C324.141 599.212 324.657 600.796 325.689 601.972C326.721 603.124 328.149 603.7 329.973 603.7Z" fill="#3B3B3B"/>
<path d="M1053.87 492L1048.83 482.64H1048.07V492H1041.02V466.62H1052.14C1054.18 466.62 1055.91 466.98 1057.32 467.7C1058.74 468.396 1059.81 469.368 1060.53 470.616C1061.25 471.84 1061.61 473.22 1061.61 474.756C1061.61 476.484 1061.13 478.008 1060.17 479.328C1059.23 480.624 1057.85 481.548 1056.03 482.1L1061.75 492H1053.87ZM1048.07 477.816H1051.56C1052.52 477.816 1053.24 477.588 1053.72 477.132C1054.2 476.676 1054.44 476.016 1054.44 475.152C1054.44 474.336 1054.19 473.7 1053.69 473.244C1053.21 472.764 1052.5 472.524 1051.56 472.524H1048.07V477.816ZM1071.87 472.272V476.412H1079.97V481.776H1071.87V486.348H1081.05V492H1064.82V466.62H1081.05V472.272H1071.87ZM1094.12 492.252C1091.16 492.252 1088.74 491.556 1086.84 490.164C1084.95 488.748 1083.93 486.732 1083.78 484.116H1091.31C1091.38 485.004 1091.64 485.652 1092.1 486.06C1092.56 486.468 1093.14 486.672 1093.86 486.672C1094.51 486.672 1095.04 486.516 1095.45 486.204C1095.88 485.868 1096.1 485.412 1096.1 484.836C1096.1 484.092 1095.75 483.516 1095.05 483.108C1094.36 482.7 1093.23 482.244 1091.67 481.74C1090.01 481.188 1088.67 480.66 1087.64 480.156C1086.63 479.628 1085.74 478.872 1084.97 477.888C1084.23 476.88 1083.86 475.572 1083.86 473.964C1083.86 472.332 1084.26 470.94 1085.08 469.788C1085.9 468.612 1087.02 467.724 1088.46 467.124C1089.9 466.524 1091.54 466.224 1093.36 466.224C1096.31 466.224 1098.66 466.92 1100.42 468.312C1102.19 469.68 1103.14 471.612 1103.26 474.108H1095.59C1095.57 473.34 1095.33 472.764 1094.87 472.38C1094.44 471.996 1093.88 471.804 1093.18 471.804C1092.65 471.804 1092.22 471.96 1091.88 472.272C1091.55 472.584 1091.38 473.028 1091.38 473.604C1091.38 474.084 1091.56 474.504 1091.92 474.864C1092.3 475.2 1092.77 475.5 1093.32 475.764C1093.88 476.004 1094.69 476.316 1095.77 476.7C1097.38 477.252 1098.7 477.804 1099.73 478.356C1100.79 478.884 1101.69 479.64 1102.43 480.624C1103.2 481.584 1103.58 482.808 1103.58 484.296C1103.58 485.808 1103.2 487.164 1102.43 488.364C1101.69 489.564 1100.6 490.512 1099.16 491.208C1097.74 491.904 1096.06 492.252 1094.12 492.252ZM1113.92 466.62V492H1106.86V466.62H1113.92ZM1127.51 492.252C1124.56 492.252 1122.14 491.556 1120.24 490.164C1118.35 488.748 1117.33 486.732 1117.18 484.116H1124.71C1124.78 485.004 1125.04 485.652 1125.5 486.06C1125.95 486.468 1126.54 486.672 1127.26 486.672C1127.91 486.672 1128.44 486.516 1128.85 486.204C1129.28 485.868 1129.49 485.412 1129.49 484.836C1129.49 484.092 1129.15 483.516 1128.45 483.108C1127.75 482.7 1126.63 482.244 1125.07 481.74C1123.41 481.188 1122.07 480.66 1121.03 480.156C1120.03 479.628 1119.14 478.872 1118.37 477.888C1117.63 476.88 1117.25 475.572 1117.25 473.964C1117.25 472.332 1117.66 470.94 1118.48 469.788C1119.29 468.612 1120.42 467.724 1121.86 467.124C1123.3 466.524 1124.93 466.224 1126.76 466.224C1129.71 466.224 1132.06 466.92 1133.81 468.312C1135.59 469.68 1136.54 471.612 1136.66 474.108H1128.99C1128.97 473.34 1128.73 472.764 1128.27 472.38C1127.84 471.996 1127.27 471.804 1126.58 471.804C1126.05 471.804 1125.62 471.96 1125.28 472.272C1124.95 472.584 1124.78 473.028 1124.78 473.604C1124.78 474.084 1124.96 474.504 1125.32 474.864C1125.7 475.2 1126.17 475.5 1126.72 475.764C1127.27 476.004 1128.09 476.316 1129.17 476.7C1130.78 477.252 1132.1 477.804 1133.13 478.356C1134.19 478.884 1135.09 479.64 1135.83 480.624C1136.6 481.584 1136.98 482.808 1136.98 484.296C1136.98 485.808 1136.6 487.164 1135.83 488.364C1135.09 489.564 1133.99 490.512 1132.55 491.208C1131.14 491.904 1129.46 492.252 1127.51 492.252ZM1159.38 466.62V472.236H1152.61V492H1145.55V472.236H1138.86V466.62H1159.38ZM1169.04 472.272V476.412H1177.14V481.776H1169.04V486.348H1178.22V492H1161.99V466.62H1178.22V472.272H1169.04ZM1169.98 462.264L1164.18 465.144V460.428L1169.98 457.656L1175.7 460.428V465.144L1169.98 462.264ZM1205.22 492H1198.16L1188.77 477.816V492H1181.71V466.62H1188.77L1198.16 480.984V466.62H1205.22V492ZM1208.37 479.256C1208.37 476.76 1208.89 474.54 1209.92 472.596C1210.98 470.628 1212.47 469.104 1214.39 468.024C1216.31 466.92 1218.51 466.368 1221.01 466.368C1224.18 466.368 1226.84 467.22 1229 468.924C1231.16 470.604 1232.55 472.896 1233.18 475.8H1225.58C1225.13 474.84 1224.49 474.108 1223.67 473.604C1222.88 473.1 1221.96 472.848 1220.9 472.848C1219.27 472.848 1217.96 473.436 1216.98 474.612C1216.02 475.764 1215.54 477.312 1215.54 479.256C1215.54 481.224 1216.02 482.796 1216.98 483.972C1217.96 485.124 1219.27 485.7 1220.9 485.7C1221.96 485.7 1222.88 485.448 1223.67 484.944C1224.49 484.44 1225.13 483.708 1225.58 482.748H1233.18C1232.55 485.652 1231.16 487.956 1229 489.66C1226.84 491.34 1224.18 492.18 1221.01 492.18C1218.51 492.18 1216.31 491.64 1214.39 490.56C1212.47 489.456 1210.98 487.932 1209.92 485.988C1208.89 484.02 1208.37 481.776 1208.37 479.256ZM1243.58 466.62V492H1236.52V466.62H1243.58ZM1263.65 487.86H1254.65L1253.28 492H1245.87L1255.12 466.62H1263.25L1272.47 492H1265.02L1263.65 487.86ZM1261.89 482.46L1259.15 474.252L1256.45 482.46H1261.89Z" fill="#3B3B3B"/>
<path d="M415.868 670L410.828 660.64H410.072V670H403.016V644.62H414.14C416.18 644.62 417.908 644.98 419.324 645.7C420.74 646.396 421.808 647.368 422.528 648.616C423.248 649.84 423.608 651.22 423.608 652.756C423.608 654.484 423.128 656.008 422.168 657.328C421.232 658.624 419.852 659.548 418.028 660.1L423.752 670H415.868ZM410.072 655.816H413.564C414.524 655.816 415.244 655.588 415.724 655.132C416.204 654.676 416.444 654.016 416.444 653.152C416.444 652.336 416.192 651.7 415.688 651.244C415.208 650.764 414.5 650.524 413.564 650.524H410.072V655.816ZM433.873 650.272V654.412H441.973V659.776H433.873V664.348H443.053V670H426.817V644.62H443.053V650.272H433.873ZM456.115 670.252C453.163 670.252 450.739 669.556 448.843 668.164C446.947 666.748 445.927 664.732 445.783 662.116H453.307C453.379 663.004 453.643 663.652 454.099 664.06C454.555 664.468 455.143 664.672 455.863 664.672C456.511 664.672 457.039 664.516 457.447 664.204C457.879 663.868 458.095 663.412 458.095 662.836C458.095 662.092 457.747 661.516 457.051 661.108C456.355 660.7 455.227 660.244 453.667 659.74C452.011 659.188 450.667 658.66 449.635 658.156C448.627 657.628 447.739 656.872 446.971 655.888C446.227 654.88 445.855 653.572 445.855 651.964C445.855 650.332 446.263 648.94 447.079 647.788C447.895 646.612 449.023 645.724 450.463 645.124C451.903 644.524 453.535 644.224 455.359 644.224C458.311 644.224 460.663 644.92 462.415 646.312C464.191 647.68 465.139 649.612 465.259 652.108H457.591C457.567 651.34 457.327 650.764 456.871 650.38C456.439 649.996 455.875 649.804 455.179 649.804C454.651 649.804 454.219 649.96 453.883 650.272C453.547 650.584 453.379 651.028 453.379 651.604C453.379 652.084 453.559 652.504 453.919 652.864C454.303 653.2 454.771 653.5 455.323 653.764C455.875 654.004 456.691 654.316 457.771 654.7C459.379 655.252 460.699 655.804 461.731 656.356C462.787 656.884 463.687 657.64 464.431 658.624C465.199 659.584 465.583 660.808 465.583 662.296C465.583 663.808 465.199 665.164 464.431 666.364C463.687 667.564 462.595 668.512 461.155 669.208C459.739 669.904 458.059 670.252 456.115 670.252ZM475.92 644.62V670H468.864V644.62H475.92ZM489.514 670.252C486.562 670.252 484.138 669.556 482.242 668.164C480.346 666.748 479.326 664.732 479.182 662.116H486.706C486.778 663.004 487.042 663.652 487.498 664.06C487.954 664.468 488.542 664.672 489.262 664.672C489.91 664.672 490.438 664.516 490.846 664.204C491.278 663.868 491.494 663.412 491.494 662.836C491.494 662.092 491.146 661.516 490.45 661.108C489.754 660.7 488.626 660.244 487.066 659.74C485.41 659.188 484.066 658.66 483.034 658.156C482.026 657.628 481.138 656.872 480.37 655.888C479.626 654.88 479.254 653.572 479.254 651.964C479.254 650.332 479.662 648.94 480.478 647.788C481.294 646.612 482.422 645.724 483.862 645.124C485.302 644.524 486.934 644.224 488.758 644.224C491.71 644.224 494.062 644.92 495.814 646.312C497.59 647.68 498.538 649.612 498.658 652.108H490.99C490.966 651.34 490.726 650.764 490.27 650.38C489.838 649.996 489.274 649.804 488.578 649.804C488.05 649.804 487.618 649.96 487.282 650.272C486.946 650.584 486.778 651.028 486.778 651.604C486.778 652.084 486.958 652.504 487.318 652.864C487.702 653.2 488.17 653.5 488.722 653.764C489.274 654.004 490.09 654.316 491.17 654.7C492.778 655.252 494.098 655.804 495.13 656.356C496.186 656.884 497.086 657.64 497.83 658.624C498.598 659.584 498.982 660.808 498.982 662.296C498.982 663.808 498.598 665.164 497.83 666.364C497.086 667.564 495.994 668.512 494.554 669.208C493.138 669.904 491.458 670.252 489.514 670.252ZM521.378 644.62V650.236H514.61V670H507.554V650.236H500.858V644.62H521.378ZM531.045 650.272V654.412H539.145V659.776H531.045V664.348H540.225V670H523.989V644.62H540.225V650.272H531.045ZM531.981 640.264L526.185 643.144V638.428L531.981 635.656L537.705 638.428V643.144L531.981 640.264ZM567.219 670H560.163L550.767 655.816V670H543.711V644.62H550.767L560.163 658.984V644.62H567.219V670ZM570.375 657.256C570.375 654.76 570.891 652.54 571.923 650.596C572.979 648.628 574.467 647.104 576.387 646.024C578.307 644.92 580.515 644.368 583.011 644.368C586.179 644.368 588.843 645.22 591.003 646.924C593.163 648.604 594.555 650.896 595.179 653.8H587.583C587.127 652.84 586.491 652.108 585.675 651.604C584.883 651.1 583.959 650.848 582.903 650.848C581.271 650.848 579.963 651.436 578.979 652.612C578.019 653.764 577.539 655.312 577.539 657.256C577.539 659.224 578.019 660.796 578.979 661.972C579.963 663.124 581.271 663.7 582.903 663.7C583.959 663.7 584.883 663.448 585.675 662.944C586.491 662.44 587.127 661.708 587.583 660.748H595.179C594.555 663.652 593.163 665.956 591.003 667.66C588.843 669.34 586.179 670.18 583.011 670.18C580.515 670.18 578.307 669.64 576.387 668.56C574.467 667.456 572.979 665.932 571.923 663.988C570.891 662.02 570.375 659.776 570.375 657.256ZM605.576 644.62V670H598.52V644.62H605.576ZM625.65 665.86H616.65L615.282 670H607.866L617.118 644.62H625.254L634.47 670H627.018L625.65 665.86ZM623.886 660.46L621.15 652.252L618.45 660.46H623.886Z" fill="#3B3B3B"/>
<path d="M920.592 347.252C917.64 347.252 915.216 346.556 913.32 345.164C911.424 343.748 910.404 341.732 910.26 339.116H917.784C917.856 340.004 918.12 340.652 918.576 341.06C919.032 341.468 919.62 341.672 920.34 341.672C920.988 341.672 921.516 341.516 921.924 341.204C922.356 340.868 922.572 340.412 922.572 339.836C922.572 339.092 922.224 338.516 921.528 338.108C920.832 337.7 919.704 337.244 918.144 336.74C916.488 336.188 915.144 335.66 914.112 335.156C913.104 334.628 912.216 333.872 911.448 332.888C910.704 331.88 910.332 330.572 910.332 328.964C910.332 327.332 910.74 325.94 911.556 324.788C912.372 323.612 913.5 322.724 914.94 322.124C916.38 321.524 918.012 321.224 919.836 321.224C922.788 321.224 925.14 321.92 926.892 323.312C928.668 324.68 929.616 326.612 929.736 329.108H922.068C922.044 328.34 921.804 327.764 921.348 327.38C920.916 326.996 920.352 326.804 919.656 326.804C919.128 326.804 918.696 326.96 918.36 327.272C918.024 327.584 917.856 328.028 917.856 328.604C917.856 329.084 918.036 329.504 918.396 329.864C918.78 330.2 919.248 330.5 919.8 330.764C920.352 331.004 921.168 331.316 922.248 331.7C923.856 332.252 925.176 332.804 926.208 333.356C927.264 333.884 928.164 334.64 928.908 335.624C929.676 336.584 930.06 337.808 930.06 339.296C930.06 340.808 929.676 342.164 928.908 343.364C928.164 344.564 927.072 345.512 925.632 346.208C924.216 346.904 922.536 347.252 920.592 347.252ZM940.396 321.62V347H933.34V321.62H940.396ZM951.47 341.6H959.354V347H944.414V321.62H951.47V341.6ZM969.154 327.272V331.412H977.254V336.776H969.154V341.348H978.334V347H962.098V321.62H978.334V327.272H969.154ZM970.09 317.264L964.294 320.144V315.428L970.09 312.656L975.814 315.428V320.144L970.09 317.264ZM1005.33 347H998.273L988.877 332.816V347H981.821V321.62H988.877L998.273 335.984V321.62H1005.33V347ZM1008.48 334.256C1008.48 331.76 1009 329.54 1010.03 327.596C1011.09 325.628 1012.58 324.104 1014.5 323.024C1016.42 321.92 1018.62 321.368 1021.12 321.368C1024.29 321.368 1026.95 322.22 1029.11 323.924C1031.27 325.604 1032.66 327.896 1033.29 330.8H1025.69C1025.24 329.84 1024.6 329.108 1023.78 328.604C1022.99 328.1 1022.07 327.848 1021.01 327.848C1019.38 327.848 1018.07 328.436 1017.09 329.612C1016.13 330.764 1015.65 332.312 1015.65 334.256C1015.65 336.224 1016.13 337.796 1017.09 338.972C1018.07 340.124 1019.38 340.7 1021.01 340.7C1022.07 340.7 1022.99 340.448 1023.78 339.944C1024.6 339.44 1025.24 338.708 1025.69 337.748H1033.29C1032.66 340.652 1031.27 342.956 1029.11 344.66C1026.95 346.34 1024.29 347.18 1021.12 347.18C1018.62 347.18 1016.42 346.64 1014.5 345.56C1012.58 344.456 1011.09 342.932 1010.03 340.988C1009 339.02 1008.48 336.776 1008.48 334.256ZM1043.69 321.62V347H1036.63V321.62H1043.69ZM1059.87 347.252C1057.5 347.252 1055.31 346.7 1053.32 345.596C1051.33 344.468 1049.74 342.92 1048.57 340.952C1047.42 338.96 1046.84 336.716 1046.84 334.22C1046.84 331.724 1047.42 329.492 1048.57 327.524C1049.74 325.532 1051.33 323.984 1053.32 322.88C1055.31 321.776 1057.5 321.224 1059.87 321.224C1062.27 321.224 1064.46 321.776 1066.42 322.88C1068.42 323.984 1069.99 325.532 1071.14 327.524C1072.29 329.492 1072.87 331.724 1072.87 334.22C1072.87 336.716 1072.29 338.96 1071.14 340.952C1069.99 342.92 1068.42 344.468 1066.42 345.596C1064.43 346.7 1062.25 347.252 1059.87 347.252ZM1059.87 340.7C1061.67 340.7 1063.09 340.112 1064.12 338.936C1065.18 337.76 1065.7 336.188 1065.7 334.22C1065.7 332.204 1065.18 330.62 1064.12 329.468C1063.09 328.292 1061.67 327.704 1059.87 327.704C1058.05 327.704 1056.62 328.292 1055.59 329.468C1054.56 330.62 1054.04 332.204 1054.04 334.22C1054.04 336.212 1054.56 337.796 1055.59 338.972C1056.62 340.124 1058.05 340.7 1059.87 340.7Z" fill="#3B3B3B"/>
<path d="M499.132 152.62V158.236H492.364V178H485.308V158.236H478.612V152.62H499.132ZM508.799 158.272V162.412H516.899V167.776H508.799V172.348H517.979V178H501.743V152.62H517.979V158.272H508.799ZM551.093 152.62V178H544.037V163.996L539.249 178H533.345L528.521 163.888V178H521.465V152.62H529.997L536.369 169.108L542.597 152.62H551.093ZM575.162 161.08C575.162 162.616 574.802 164.02 574.082 165.292C573.386 166.54 572.318 167.548 570.878 168.316C569.462 169.06 567.722 169.432 565.658 169.432H562.166V178H555.11V152.62H565.658C567.698 152.62 569.426 152.98 570.842 153.7C572.282 154.42 573.362 155.416 574.082 156.688C574.802 157.96 575.162 159.424 575.162 161.08ZM564.974 163.816C566.966 163.816 567.962 162.904 567.962 161.08C567.962 159.232 566.966 158.308 564.974 158.308H562.166V163.816H564.974ZM590.164 178.252C587.788 178.252 585.604 177.7 583.612 176.596C581.62 175.468 580.036 173.92 578.86 171.952C577.708 169.96 577.132 167.716 577.132 165.22C577.132 162.724 577.708 160.492 578.86 158.524C580.036 156.532 581.62 154.984 583.612 153.88C585.604 152.776 587.788 152.224 590.164 152.224C592.564 152.224 594.748 152.776 596.716 153.88C598.708 154.984 600.28 156.532 601.432 158.524C602.584 160.492 603.16 162.724 603.16 165.22C603.16 167.716 602.584 169.96 601.432 171.952C600.28 173.92 598.708 175.468 596.716 176.596C594.724 177.7 592.54 178.252 590.164 178.252ZM590.164 171.7C591.964 171.7 593.38 171.112 594.412 169.936C595.468 168.76 595.996 167.188 595.996 165.22C595.996 163.204 595.468 161.62 594.412 160.468C593.38 159.292 591.964 158.704 590.164 158.704C588.34 158.704 586.912 159.292 585.88 160.468C584.848 161.62 584.332 163.204 584.332 165.22C584.332 167.212 584.848 168.796 585.88 169.972C586.912 171.124 588.34 171.7 590.164 171.7Z" fill="#3B3B3B"/>
<path d="M992.132 148.62V154.236H985.364V174H978.308V154.236H971.612V148.62H992.132ZM1007.59 174L1002.55 164.64H1001.8V174H994.743V148.62H1005.87C1007.91 148.62 1009.63 148.98 1011.05 149.7C1012.47 150.396 1013.53 151.368 1014.25 152.616C1014.97 153.84 1015.33 155.22 1015.33 156.756C1015.33 158.484 1014.85 160.008 1013.89 161.328C1012.96 162.624 1011.58 163.548 1009.75 164.1L1015.48 174H1007.59ZM1001.8 159.816H1005.29C1006.25 159.816 1006.97 159.588 1007.45 159.132C1007.93 158.676 1008.17 158.016 1008.17 157.152C1008.17 156.336 1007.92 155.7 1007.41 155.244C1006.93 154.764 1006.23 154.524 1005.29 154.524H1001.8V159.816ZM1025.6 148.62V174H1018.54V148.62H1025.6ZM1039.19 174.252C1036.24 174.252 1033.82 173.556 1031.92 172.164C1030.03 170.748 1029.01 168.732 1028.86 166.116H1036.39C1036.46 167.004 1036.72 167.652 1037.18 168.06C1037.63 168.468 1038.22 168.672 1038.94 168.672C1039.59 168.672 1040.12 168.516 1040.53 168.204C1040.96 167.868 1041.17 167.412 1041.17 166.836C1041.17 166.092 1040.83 165.516 1040.13 165.108C1039.43 164.7 1038.31 164.244 1036.75 163.74C1035.09 163.188 1033.75 162.66 1032.71 162.156C1031.71 161.628 1030.82 160.872 1030.05 159.888C1029.31 158.88 1028.93 157.572 1028.93 155.964C1028.93 154.332 1029.34 152.94 1030.16 151.788C1030.97 150.612 1032.1 149.724 1033.54 149.124C1034.98 148.524 1036.61 148.224 1038.44 148.224C1041.39 148.224 1043.74 148.92 1045.49 150.312C1047.27 151.68 1048.22 153.612 1048.34 156.108H1040.67C1040.65 155.34 1040.41 154.764 1039.95 154.38C1039.52 153.996 1038.95 153.804 1038.26 153.804C1037.73 153.804 1037.3 153.96 1036.96 154.272C1036.63 154.584 1036.46 155.028 1036.46 155.604C1036.46 156.084 1036.64 156.504 1037 156.864C1037.38 157.2 1037.85 157.5 1038.4 157.764C1038.95 158.004 1039.77 158.316 1040.85 158.7C1042.46 159.252 1043.78 159.804 1044.81 160.356C1045.87 160.884 1046.77 161.64 1047.51 162.624C1048.28 163.584 1048.66 164.808 1048.66 166.296C1048.66 167.808 1048.28 169.164 1047.51 170.364C1046.77 171.564 1045.67 172.512 1044.23 173.208C1042.82 173.904 1041.14 174.252 1039.19 174.252ZM1071.06 148.62V154.236H1064.29V174H1057.23V154.236H1050.54V148.62H1071.06ZM1080.72 154.272V158.412H1088.82V163.776H1080.72V168.348H1089.9V174H1073.67V148.62H1089.9V154.272H1080.72ZM1101.1 168.276H1111.64V174H1093.18V168.636L1103.62 154.308H1093.18V148.62H1111.64V153.984L1101.1 168.276ZM1131.53 169.86H1122.53L1121.16 174H1113.74L1122.99 148.62H1131.13L1140.35 174H1132.89L1131.53 169.86ZM1129.76 164.46L1127.03 156.252L1124.33 164.46H1129.76Z" fill="#3B3B3B"/>
<path d="M709.152 114.256C709.152 111.76 709.668 109.54 710.7 107.596C711.756 105.628 713.244 104.104 715.164 103.024C717.084 101.92 719.292 101.368 721.788 101.368C724.956 101.368 727.62 102.22 729.78 103.924C731.94 105.604 733.332 107.896 733.956 110.8H726.36C725.904 109.84 725.268 109.108 724.452 108.604C723.66 108.1 722.736 107.848 721.68 107.848C720.048 107.848 718.74 108.436 717.756 109.612C716.796 110.764 716.316 112.312 716.316 114.256C716.316 116.224 716.796 117.796 717.756 118.972C718.74 120.124 720.048 120.7 721.68 120.7C722.736 120.7 723.66 120.448 724.452 119.944C725.268 119.44 725.904 118.708 726.36 117.748H733.956C733.332 120.652 731.94 122.956 729.78 124.66C727.62 126.34 724.956 127.18 721.788 127.18C719.292 127.18 717.084 126.64 715.164 125.56C713.244 124.456 711.756 122.932 710.7 120.988C709.668 119.02 709.152 116.776 709.152 114.256ZM753.353 122.86H744.353L742.985 127H735.569L744.821 101.62H752.957L762.173 127H754.721L753.353 122.86ZM751.589 117.46L748.853 109.252L746.153 117.46H751.589ZM787.981 127H780.925L771.529 112.816V127H764.473V101.62H771.529L780.925 115.984V101.62H787.981V127ZM801.576 127.252C798.624 127.252 796.2 126.556 794.304 125.164C792.408 123.748 791.388 121.732 791.244 119.116H798.768C798.84 120.004 799.104 120.652 799.56 121.06C800.016 121.468 800.604 121.672 801.324 121.672C801.972 121.672 802.5 121.516 802.908 121.204C803.34 120.868 803.556 120.412 803.556 119.836C803.556 119.092 803.208 118.516 802.512 118.108C801.816 117.7 800.688 117.244 799.128 116.74C797.472 116.188 796.128 115.66 795.096 115.156C794.088 114.628 793.2 113.872 792.432 112.888C791.688 111.88 791.316 110.572 791.316 108.964C791.316 107.332 791.724 105.94 792.54 104.788C793.356 103.612 794.484 102.724 795.924 102.124C797.364 101.524 798.996 101.224 800.82 101.224C803.772 101.224 806.124 101.92 807.876 103.312C809.652 104.68 810.6 106.612 810.72 109.108H803.052C803.028 108.34 802.788 107.764 802.332 107.38C801.9 106.996 801.336 106.804 800.64 106.804C800.112 106.804 799.68 106.96 799.344 107.272C799.008 107.584 798.84 108.028 798.84 108.604C798.84 109.084 799.02 109.504 799.38 109.864C799.764 110.2 800.232 110.5 800.784 110.764C801.336 111.004 802.152 111.316 803.232 111.7C804.84 112.252 806.16 112.804 807.192 113.356C808.248 113.884 809.148 114.64 809.892 115.624C810.66 116.584 811.044 117.808 811.044 119.296C811.044 120.808 810.66 122.164 809.892 123.364C809.148 124.564 808.056 125.512 806.616 126.208C805.2 126.904 803.52 127.252 801.576 127.252ZM830.381 122.86H821.381L820.013 127H812.597L821.849 101.62H829.985L839.201 127H831.749L830.381 122.86ZM828.617 117.46L825.881 109.252L823.181 117.46H828.617ZM853.164 120.7C854.22 120.7 855.144 120.448 855.936 119.944C856.752 119.44 857.388 118.708 857.844 117.748H865.44C864.888 120.292 863.736 122.38 861.984 124.012C860.256 125.644 858.096 126.652 855.504 127.036V128.332C856.68 128.332 857.748 128.68 858.708 129.376C859.692 130.072 860.184 131.14 860.184 132.58C860.184 134.044 859.668 135.124 858.636 135.82C857.604 136.516 856.38 136.864 854.964 136.864H849.096V133.156H854.136C854.928 133.156 855.324 132.904 855.324 132.4C855.324 131.896 854.928 131.644 854.136 131.644H851.328V127.072C849.168 126.808 847.284 126.1 845.676 124.948C844.068 123.796 842.82 122.308 841.932 120.484C841.068 118.636 840.636 116.56 840.636 114.256C840.636 111.76 841.152 109.54 842.184 107.596C843.24 105.628 844.728 104.104 846.648 103.024C848.568 101.92 850.776 101.368 853.272 101.368C856.44 101.368 859.104 102.22 861.264 103.924C863.424 105.604 864.816 107.896 865.44 110.8H857.844C857.388 109.84 856.752 109.108 855.936 108.604C855.144 108.1 854.22 107.848 853.164 107.848C851.532 107.848 850.224 108.436 849.24 109.612C848.28 110.764 847.8 112.312 847.8 114.256C847.8 116.224 848.28 117.796 849.24 118.972C850.224 120.124 851.532 120.7 853.164 120.7ZM880.95 127.252C878.574 127.252 876.39 126.7 874.398 125.596C872.406 124.468 870.822 122.92 869.646 120.952C868.494 118.96 867.918 116.716 867.918 114.22C867.918 111.724 868.494 109.492 869.646 107.524C870.822 105.532 872.406 103.984 874.398 102.88C876.39 101.776 878.574 101.224 880.95 101.224C883.35 101.224 885.534 101.776 887.502 102.88C889.494 103.984 891.066 105.532 892.218 107.524C893.37 109.492 893.946 111.724 893.946 114.22C893.946 116.716 893.37 118.96 892.218 120.952C891.066 122.92 889.494 124.468 887.502 125.596C885.51 126.7 883.326 127.252 880.95 127.252ZM880.95 120.7C882.75 120.7 884.166 120.112 885.198 118.936C886.254 117.76 886.782 116.188 886.782 114.22C886.782 112.204 886.254 110.62 885.198 109.468C884.166 108.292 882.75 107.704 880.95 107.704C879.126 107.704 877.698 108.292 876.666 109.468C875.634 110.62 875.118 112.204 875.118 114.22C875.118 116.212 875.634 117.796 876.666 118.972C877.698 120.124 879.126 120.7 880.95 120.7Z" fill="#3B3B3B"/>
<path d="M530.592 510.252C527.64 510.252 525.216 509.556 523.32 508.164C521.424 506.748 520.404 504.732 520.26 502.116H527.784C527.856 503.004 528.12 503.652 528.576 504.06C529.032 504.468 529.62 504.672 530.34 504.672C530.988 504.672 531.516 504.516 531.924 504.204C532.356 503.868 532.572 503.412 532.572 502.836C532.572 502.092 532.224 501.516 531.528 501.108C530.832 500.7 529.704 500.244 528.144 499.74C526.488 499.188 525.144 498.66 524.112 498.156C523.104 497.628 522.216 496.872 521.448 495.888C520.704 494.88 520.332 493.572 520.332 491.964C520.332 490.332 520.74 488.94 521.556 487.788C522.372 486.612 523.5 485.724 524.94 485.124C526.38 484.524 528.012 484.224 529.836 484.224C532.788 484.224 535.14 484.92 536.892 486.312C538.668 487.68 539.616 489.612 539.736 492.108H532.068C532.044 491.34 531.804 490.764 531.348 490.38C530.916 489.996 530.352 489.804 529.656 489.804C529.128 489.804 528.696 489.96 528.36 490.272C528.024 490.584 527.856 491.028 527.856 491.604C527.856 492.084 528.036 492.504 528.396 492.864C528.78 493.2 529.248 493.5 529.8 493.764C530.352 494.004 531.168 494.316 532.248 494.7C533.856 495.252 535.176 495.804 536.208 496.356C537.264 496.884 538.164 497.64 538.908 498.624C539.676 499.584 540.06 500.808 540.06 502.296C540.06 503.808 539.676 505.164 538.908 506.364C538.164 507.564 537.072 508.512 535.632 509.208C534.216 509.904 532.536 510.252 530.592 510.252ZM559.396 505.86H550.396L549.028 510H541.612L550.864 484.62H559L568.216 510H560.764L559.396 505.86ZM557.632 500.46L554.896 492.252L552.196 500.46H557.632ZM577.428 484.62V499.344C577.428 500.712 577.74 501.768 578.364 502.512C579.012 503.256 579.984 503.628 581.28 503.628C582.576 503.628 583.548 503.256 584.196 502.512C584.868 501.744 585.204 500.688 585.204 499.344V484.62H592.26V499.344C592.26 501.672 591.768 503.664 590.784 505.32C589.8 506.952 588.456 508.188 586.752 509.028C585.072 509.844 583.2 510.252 581.136 510.252C579.072 510.252 577.224 509.844 575.592 509.028C573.984 508.188 572.712 506.952 571.776 505.32C570.864 503.688 570.408 501.696 570.408 499.344V484.62H577.428ZM606.189 484.62C608.853 484.62 611.181 485.16 613.173 486.24C615.189 487.296 616.737 488.784 617.817 490.704C618.897 492.624 619.437 494.82 619.437 497.292C619.437 499.74 618.885 501.924 617.781 503.844C616.701 505.764 615.153 507.276 613.137 508.38C611.145 509.46 608.829 510 606.189 510H596.145V484.62H606.189ZM605.649 503.772C607.713 503.772 609.333 503.208 610.509 502.08C611.685 500.952 612.273 499.356 612.273 497.292C612.273 495.204 611.685 493.596 610.509 492.468C609.333 491.316 607.713 490.74 605.649 490.74H603.201V503.772H605.649ZM638.674 505.86H629.674L628.306 510H620.89L630.142 484.62H638.278L647.494 510H640.042L638.674 505.86ZM636.91 500.46L634.174 492.252L631.474 500.46H636.91ZM659.837 484.62C662.501 484.62 664.829 485.16 666.821 486.24C668.837 487.296 670.385 488.784 671.465 490.704C672.545 492.624 673.085 494.82 673.085 497.292C673.085 499.74 672.533 501.924 671.429 503.844C670.349 505.764 668.801 507.276 666.785 508.38C664.793 509.46 662.477 510 659.837 510H649.793V484.62H659.837ZM659.297 503.772C661.361 503.772 662.981 503.208 664.157 502.08C665.333 500.952 665.921 499.356 665.921 497.292C665.921 495.204 665.333 493.596 664.157 492.468C662.981 491.316 661.361 490.74 659.297 490.74H656.849V503.772H659.297ZM683.322 490.272V494.412H691.422V499.776H683.322V504.348H692.502V510H676.266V484.62H692.502V490.272H683.322Z" fill="#3B3B3B"/>
<path d="M953.152 621.256C953.152 618.76 953.668 616.54 954.7 614.596C955.756 612.628 957.244 611.104 959.164 610.024C961.084 608.92 963.292 608.368 965.788 608.368C968.956 608.368 971.62 609.22 973.78 610.924C975.94 612.604 977.332 614.896 977.956 617.8H970.36C969.904 616.84 969.268 616.108 968.452 615.604C967.66 615.1 966.736 614.848 965.68 614.848C964.048 614.848 962.74 615.436 961.756 616.612C960.796 617.764 960.316 619.312 960.316 621.256C960.316 623.224 960.796 624.796 961.756 625.972C962.74 627.124 964.048 627.7 965.68 627.7C966.736 627.7 967.66 627.448 968.452 626.944C969.268 626.44 969.904 625.708 970.36 624.748H977.956C977.332 627.652 975.94 629.956 973.78 631.66C971.62 633.34 968.956 634.18 965.788 634.18C963.292 634.18 961.084 633.64 959.164 632.56C957.244 631.456 955.756 629.932 954.7 627.988C953.668 626.02 953.152 623.776 953.152 621.256ZM993.465 634.252C991.089 634.252 988.905 633.7 986.913 632.596C984.921 631.468 983.337 629.92 982.161 627.952C981.009 625.96 980.433 623.716 980.433 621.22C980.433 618.724 981.009 616.492 982.161 614.524C983.337 612.532 984.921 610.984 986.913 609.88C988.905 608.776 991.089 608.224 993.465 608.224C995.865 608.224 998.049 608.776 1000.02 609.88C1002.01 610.984 1003.58 612.532 1004.73 614.524C1005.89 616.492 1006.46 618.724 1006.46 621.22C1006.46 623.716 1005.89 625.96 1004.73 627.952C1003.58 629.92 1002.01 631.468 1000.02 632.596C998.025 633.7 995.841 634.252 993.465 634.252ZM993.465 627.7C995.265 627.7 996.681 627.112 997.713 625.936C998.769 624.76 999.297 623.188 999.297 621.22C999.297 619.204 998.769 617.62 997.713 616.468C996.681 615.292 995.265 614.704 993.465 614.704C991.641 614.704 990.213 615.292 989.181 616.468C988.149 617.62 987.633 619.204 987.633 621.22C987.633 623.212 988.149 624.796 989.181 625.972C990.213 627.124 991.641 627.7 993.465 627.7ZM1022.49 634L1017.45 624.64H1016.69V634H1009.63V608.62H1020.76C1022.8 608.62 1024.53 608.98 1025.94 609.7C1027.36 610.396 1028.43 611.368 1029.15 612.616C1029.87 613.84 1030.23 615.22 1030.23 616.756C1030.23 618.484 1029.75 620.008 1028.79 621.328C1027.85 622.624 1026.47 623.548 1024.65 624.1L1030.37 634H1022.49ZM1016.69 619.816H1020.18C1021.14 619.816 1021.86 619.588 1022.34 619.132C1022.82 618.676 1023.06 618.016 1023.06 617.152C1023.06 616.336 1022.81 615.7 1022.31 615.244C1021.83 614.764 1021.12 614.524 1020.18 614.524H1016.69V619.816ZM1049.49 629.86H1040.49L1039.12 634H1031.71L1040.96 608.62H1049.09L1058.31 634H1050.86L1049.49 629.86ZM1047.73 624.46L1044.99 616.252L1042.29 624.46H1047.73ZM1076.81 616.972C1076.4 616.3 1075.84 615.784 1075.12 615.424C1074.42 615.064 1073.59 614.884 1072.63 614.884C1070.86 614.884 1069.45 615.46 1068.42 616.612C1067.41 617.764 1066.91 619.312 1066.91 621.256C1066.91 623.44 1067.45 625.108 1068.53 626.26C1069.63 627.388 1071.23 627.952 1073.32 627.952C1075.79 627.952 1077.55 626.836 1078.61 624.604H1071.52V619.528H1084.69V626.368C1084.14 627.712 1083.33 628.972 1082.25 630.148C1081.19 631.324 1079.85 632.296 1078.21 633.064C1076.58 633.808 1074.72 634.18 1072.63 634.18C1070.09 634.18 1067.83 633.64 1065.87 632.56C1063.92 631.456 1062.41 629.932 1061.33 627.988C1060.27 626.02 1059.75 623.776 1059.75 621.256C1059.75 618.76 1060.27 616.54 1061.33 614.596C1062.41 612.628 1063.92 611.104 1065.87 610.024C1067.81 608.92 1070.05 608.368 1072.6 608.368C1075.79 608.368 1078.43 609.136 1080.52 610.672C1082.61 612.208 1083.9 614.308 1084.41 616.972H1076.81ZM1094.91 614.272V618.412H1103.01V623.776H1094.91V628.348H1104.09V634H1087.86V608.62H1104.09V614.272H1094.91ZM1137.21 608.62V634H1130.15V619.996L1125.36 634H1119.46L1114.63 619.888V634H1107.58V608.62H1116.11L1122.48 625.108L1128.71 608.62H1137.21Z" fill="#3B3B3B"/>
</svg>
