<svg width="66" height="24" viewBox="0 0 66 24" fill="none" xmlns="http://www.w3.org/2000/svg">
<path d="M0 0H54.5L38 24H0V0Z" fill="#D9D9D9"/>
<path d="M57 0H60L43.5 24H40.5L57 0Z" fill="#D9D9D9"/>
<path d="M62.5 0H65.5L49 24H46L62.5 0Z" fill="#D9D9D9"/>
<path d="M9.19434 18H7.62207C7.5765 18 7.55371 17.9772 7.55371 17.9316L7.58105 8.31348C7.58105 8.27702 7.59928 8.25879 7.63574 8.25879H12.1201C12.1657 8.25879 12.1885 8.27702 12.1885 8.31348V9.89258C12.1885 9.92904 12.1702 9.94727 12.1338 9.94727H9.2627V12.1211H12.1338C12.1702 12.1211 12.1885 12.1439 12.1885 12.1895L12.2021 13.7754C12.2021 13.8118 12.1794 13.8301 12.1338 13.8301H9.2627V17.9316C9.2627 17.9772 9.23991 18 9.19434 18ZM16.0371 18.1367C15.5404 18.1367 15.0824 18.0091 14.6631 17.7539C14.2484 17.4987 13.9134 17.1592 13.6582 16.7354C13.4076 16.307 13.2822 15.8376 13.2822 15.3271L13.2959 10.8906C13.2959 10.3711 13.4212 9.90397 13.6719 9.48926C13.918 9.06999 14.2507 8.73503 14.6699 8.48438C15.0892 8.22917 15.5449 8.10156 16.0371 8.10156C16.5475 8.10156 17.0055 8.22689 17.4111 8.47754C17.8213 8.72819 18.1494 9.06543 18.3955 9.48926C18.6462 9.90853 18.7715 10.3757 18.7715 10.8906L18.7852 15.3271C18.7852 15.8376 18.6621 16.3047 18.416 16.7285C18.1654 17.1569 17.8327 17.4987 17.418 17.7539C17.0033 18.0091 16.543 18.1367 16.0371 18.1367ZM16.0371 16.4482C16.3197 16.4482 16.5658 16.3343 16.7754 16.1064C16.985 15.874 17.0898 15.6143 17.0898 15.3271L17.0762 10.8906C17.0762 10.5807 16.9782 10.3187 16.7822 10.1045C16.5863 9.8903 16.3379 9.7832 16.0371 9.7832C15.75 9.7832 15.5039 9.88802 15.2988 10.0977C15.0938 10.3073 14.9912 10.5716 14.9912 10.8906V15.3271C14.9912 15.6325 15.0938 15.8968 15.2988 16.1201C15.5039 16.3389 15.75 16.4482 16.0371 16.4482ZM22.832 18H21.2529C21.2119 18 21.1914 17.9772 21.1914 17.9316V9.94727H19.373C19.3275 9.94727 19.3047 9.92448 19.3047 9.87891L19.3184 8.31348C19.3184 8.27702 19.3366 8.25879 19.373 8.25879H24.6914C24.7415 8.25879 24.7666 8.27702 24.7666 8.31348V9.87891C24.7666 9.92448 24.7484 9.94727 24.7119 9.94727H22.873L22.8867 17.9316C22.8867 17.9772 22.8685 18 22.832 18ZM28.041 18.1367C27.5443 18.1367 27.0863 18.0091 26.667 17.7539C26.2523 17.4987 25.9173 17.1592 25.6621 16.7354C25.4115 16.307 25.2861 15.8376 25.2861 15.3271L25.2998 10.8906C25.2998 10.3711 25.4251 9.90397 25.6758 9.48926C25.9219 9.06999 26.2546 8.73503 26.6738 8.48438C27.0931 8.22917 27.5488 8.10156 28.041 8.10156C28.5514 8.10156 29.0094 8.22689 29.415 8.47754C29.8252 8.72819 30.1533 9.06543 30.3994 9.48926C30.6501 9.90853 30.7754 10.3757 30.7754 10.8906L30.7891 15.3271C30.7891 15.8376 30.666 16.3047 30.4199 16.7285C30.1693 17.1569 29.8366 17.4987 29.4219 17.7539C29.0072 18.0091 28.5469 18.1367 28.041 18.1367ZM28.041 16.4482C28.3236 16.4482 28.5697 16.3343 28.7793 16.1064C28.9889 15.874 29.0938 15.6143 29.0938 15.3271L29.0801 10.8906C29.0801 10.5807 28.9821 10.3187 28.7861 10.1045C28.5902 9.8903 28.3418 9.7832 28.041 9.7832C27.7539 9.7832 27.5078 9.88802 27.3027 10.0977C27.0977 10.3073 26.9951 10.5716 26.9951 10.8906V15.3271C26.9951 15.6325 27.0977 15.8968 27.3027 16.1201C27.5078 16.3389 27.7539 16.4482 28.041 16.4482Z" fill="#6B6B6B"/>
</svg>
